<?xml version="1.0" encoding="iso-8859-1"?>
<!-- Generator: Adobe Illustrator 18.1.1, SVG Export Plug-In . SVG Version: 6.00 Build 0)  -->
<svg version="1.1" id="Capa_1" xmlns="http://www.w3.org/2000/svg" xmlns:xlink="http://www.w3.org/1999/xlink" x="0px" y="0px"
	 viewBox="0 0 63.868 63.868" style="enable-background:new 0 0 63.868 63.868;" xml:space="preserve">
<g>
	<g>
		<path style="fill:#29B6F6;" d="M16.19,12.151C24.034,12.151,24.103,0,16.277,0C8.431,0,8.361,12.151,16.19,12.151z"/>
		<path style="fill:#29B6F6;" d="M58.955,36.117c-0.482-1.767-2.631-3.269-4.482-2.546c-2.9,1.132-5.787,2.301-8.757,3.223
			c-1.042-1.104-9.198-11.883-11.724-15.507c2.791,0.423,5.598,0.754,8.42,0.988c4.685,0.388,4.646-6.904,0-7.29
			c-5.008-0.415-15.281-2.379-15.502-2.391c-5.231-0.825-7.582,0.704-8.901,6.279c-0.393,1.645-0.885,3.262-1.549,4.815
			c-2.362-0.38-4.727-0.758-7.084-1.149c-1.958-0.324-3.917,0.483-4.484,2.547c-0.484,1.761,0.583,4.157,2.546,4.482
			c3.327,0.552,6.662,1.067,9.989,1.62c1.802,0.297,3.104-0.191,4.309-2.087c0.374-0.558,1.083-1.826,1.306-2.341
			c2.686,3.85,8.287,11.849,8.287,11.849s-5.636,7.151-6.005,7.668c-0.384,0.517-0.656,1.146-0.729,1.92
			c0,0-0.404,8.092-0.404,12.146c-0.001,4.7,7.289,4.7,7.29,0l0.288-10.563l6.595-8.846c-0.098-0.188,2.399,2.426,2.399,2.426
			c1.284,1.17,2.284,1.545,4.166,1.229c3.952-0.971,7.705-2.515,11.485-3.988C58.258,39.879,59.522,38.182,58.955,36.117z"/>
	</g>
</g>
<g>
</g>
<g>
</g>
<g>
</g>
<g>
</g>
<g>
</g>
<g>
</g>
<g>
</g>
<g>
</g>
<g>
</g>
<g>
</g>
<g>
</g>
<g>
</g>
<g>
</g>
<g>
</g>
<g>
</g>
</svg>
