<?xml version="1.0" standalone="no"?>
<!DOCTYPE svg PUBLIC "-//W3C//DTD SVG 20010904//EN"
 "http://www.w3.org/TR/2001/REC-SVG-20010904/DTD/svg10.dtd">
<svg version="1.0" xmlns="http://www.w3.org/2000/svg"
 width="700.000000pt" height="700.000000pt" viewBox="0 0 700.000000 700.000000"
 preserveAspectRatio="xMidYMid meet">
<metadata>
Created by potrace 1.11, written by Peter Selinger 2001-2013
</metadata>
<g transform="translate(0.000000,700.000000) scale(0.100000,-0.100000)"
fill="#000000" stroke="none">
<path d="M1689 6996 c-2 -2 -23 -7 -47 -11 -46 -7 -95 -23 -157 -52 -236 -110
-381 -405 -343 -696 33 -259 183 -453 411 -534 99 -35 287 -41 395 -13 270 71
446 289 470 584 29 340 -150 618 -453 703 -46 13 -266 28 -276 19z"/>
<path d="M2658 5645 c-2 -1 -32 -5 -68 -9 -144 -14 -252 -60 -346 -149 -130
-121 -198 -268 -290 -627 -37 -144 -94 -323 -132 -411 l-20 -45 -196 32 c-108
18 -217 35 -243 39 -26 3 -49 8 -52 9 -3 2 -28 7 -56 10 -27 4 -77 11 -110 17
-207 35 -294 32 -397 -14 -236 -104 -295 -410 -122 -624 56 -69 136 -106 269
-127 17 -2 44 -7 60 -10 17 -3 44 -8 60 -10 17 -2 118 -18 225 -36 242 -38
237 -38 280 -45 19 -4 51 -8 70 -11 19 -2 85 -13 145 -23 271 -48 343 -48 445
2 102 49 209 185 329 420 16 29 26 34 34 14 3 -9 421 -609 617 -887 145 -205
270 -386 270 -391 0 -5 -67 -92 -308 -398 -15 -19 -80 -102 -145 -185 -64 -83
-129 -166 -145 -184 -56 -68 -103 -146 -117 -196 -17 -57 -20 -97 -31 -341 -4
-88 -8 -182 -9 -210 -9 -194 -19 -565 -19 -745 0 -200 1 -219 22 -272 42 -105
144 -192 262 -223 27 -7 84 -12 127 -10 163 6 281 78 343 211 35 73 38 101 45
349 9 338 14 505 20 740 5 185 9 235 22 255 18 28 50 72 284 385 90 121 171
230 179 242 35 51 243 323 247 323 2 0 77 -73 166 -163 144 -144 171 -167 242
-202 78 -39 82 -40 185 -39 91 0 125 6 255 42 339 93 1116 383 1232 458 270
177 241 551 -56 697 -59 29 -74 32 -151 31 -82 0 -144 -18 -265 -74 -11 -5
-58 -23 -105 -41 -47 -17 -98 -37 -115 -44 -66 -28 -302 -114 -473 -171 l-112
-38 -15 20 c-8 12 -42 54 -75 95 -78 94 -79 96 -115 144 -16 22 -32 42 -35 45
-39 35 -999 1322 -1031 1381 -9 18 -8 20 8 16 17 -5 48 -10 143 -22 25 -4 61
-9 80 -11 75 -11 87 -13 135 -19 97 -12 111 -14 190 -20 44 -4 87 -8 95 -10
37 -9 185 -20 285 -20 92 0 118 4 156 21 135 63 209 203 196 373 -9 122 -55
221 -137 295 -85 77 -159 98 -415 121 -33 3 -71 7 -85 10 -25 5 -67 11 -150
20 -25 3 -72 10 -105 16 -33 6 -71 12 -85 14 -14 2 -38 6 -55 9 -27 4 -61 9
-150 22 -16 2 -41 6 -55 9 -14 3 -38 7 -55 9 -138 23 -223 37 -240 40 -11 2
-40 7 -65 11 -25 4 -54 9 -65 11 -11 3 -35 7 -54 10 -18 3 -43 8 -55 10 -137
27 -400 67 -471 70 -49 3 -98 6 -107 8 -9 2 -18 3 -20 1z"/>
</g>
</svg>
